<svg width="40" height="40" viewBox="0 0 40 40" fill="none" xmlns="http://www.w3.org/2000/svg">
<path d="M40 20C40 31.0457 31.0457 40 20 40C8.9543 40 0 31.0457 0 20C0 8.9543 8.9543 0 20 0C31.0457 0 40 8.9543 40 20Z" fill="white"/>
<path d="M22.2925 23.8727L18.4125 19.9927L22.2925 16.1127C22.6825 15.7227 22.6825 15.0927 22.2925 14.7027C21.9025 14.3127 21.2725 14.3127 20.8825 14.7027L16.2925 19.2927C15.9025 19.6827 15.9025 20.3127 16.2925 20.7027L20.8825 25.2927C21.2725 25.6827 21.9025 25.6827 22.2925 25.2927C22.6725 24.9027 22.6825 24.2627 22.2925 23.8727Z" fill="#252528"/>
</svg>
