<svg width="40" height="40" viewBox="0 0 40 40" fill="none" xmlns="http://www.w3.org/2000/svg">
<path d="M0 20C0 31.0457 8.9543 40 20 40C31.0457 40 40 31.0457 40 20C40 8.9543 31.0457 0 20 0C8.9543 0 0 8.9543 0 20Z" fill="white"/>
<path d="M17.7075 23.8727L21.5875 19.9927L17.7075 16.1127C17.3175 15.7227 17.3175 15.0927 17.7075 14.7027C18.0975 14.3127 18.7275 14.3127 19.1175 14.7027L23.7075 19.2927C24.0975 19.6827 24.0975 20.3127 23.7075 20.7027L19.1175 25.2927C18.7275 25.6827 18.0975 25.6827 17.7075 25.2927C17.3275 24.9027 17.3175 24.2627 17.7075 23.8727Z" fill="#252528"/>
</svg>
